<svg width="120" height="120" viewBox="0 0 120 120" fill="none" xmlns="http://www.w3.org/2000/svg">
<path d="M60 42.7083V98.125M60 42.7083C60 38.5091 58.3318 34.4818 55.3625 31.5125C52.3932 28.5431 48.3659 26.875 44.1666 26.875H24.375C23.3251 26.875 22.3183 27.292 21.576 28.0344C20.8337 28.7767 20.4166 29.7835 20.4166 30.8333V82.2917C20.4166 83.3415 20.8337 84.3483 21.576 85.0906C22.3183 85.833 23.3251 86.25 24.375 86.25H48.125C51.2744 86.25 54.2949 87.5011 56.5219 89.7281C58.7489 91.9551 60 94.9756 60 98.125M60 42.7083C60 38.5091 61.6681 34.4818 64.6375 31.5125C67.6068 28.5431 71.6341 26.875 75.8333 26.875H95.625C96.6748 26.875 97.6816 27.292 98.424 28.0344C99.1663 28.7767 99.5833 29.7835 99.5833 30.8333V82.2917C99.5833 83.3415 99.1663 84.3483 98.424 85.0906C97.6816 85.833 96.6748 86.25 95.625 86.25H71.875C68.7255 86.25 65.7051 87.5011 63.4781 89.7281C61.2511 91.9551 60 94.9756 60 98.125" stroke="#9810FA" stroke-width="9" stroke-linecap="round" stroke-linejoin="round"/>
</svg>
